<svg width="772" height="216" viewBox="0 0 772 216" fill="none" xmlns="http://www.w3.org/2000/svg">
<path d="M603.293 6.72677e-08C594.71 -0.000127956 585.732 0.182483 581.819 0.547826C581.27 0.599268 579.344 0.729111 577.539 0.834242C575.733 0.939337 573.935 1.07022 573.542 1.1252C573.15 1.18025 571.673 1.30304 570.26 1.40025C568.847 1.49743 567.37 1.62927 566.978 1.69349C566.585 1.75727 565.238 1.88526 563.982 1.97763C562.726 2.07039 561.376 2.19894 560.983 2.26405C560.591 2.3291 559.5 2.45764 558.558 2.55046C557.616 2.64299 555.24 2.90731 553.277 3.13693C551.315 3.36645 549.068 3.62295 548.283 3.70521C546.971 3.8428 545.702 4.00517 543.86 4.2735C543.467 4.33064 542.053 4.52124 540.718 4.6963C501.358 9.85952 460.814 17.7219 370.895 37.6272C300.445 53.2226 262.962 60.3266 228.471 64.6208C223.795 65.2029 223.057 65.2886 219.765 65.6414C218.823 65.7421 217.732 65.8696 217.34 65.9233C216.947 65.9764 215.597 66.1101 214.341 66.2188C213.085 66.3274 211.863 66.4498 211.625 66.4938C211.386 66.5369 209.909 66.6649 208.343 66.778C206.776 66.8905 205.302 67.0181 205.067 67.0621C204.831 67.1052 203.098 67.2346 201.214 67.3485C199.33 67.462 197.566 67.5962 197.295 67.6463C196.206 67.8479 184.565 68.1884 178.664 68.1919C172.92 68.1954 166.308 67.9425 164.537 67.6508C164.144 67.5861 163.116 67.4553 162.252 67.3599C141.383 65.0533 121.494 57.4161 107.261 46.2447C106.361 45.5384 105.576 45.0055 105.519 45.0627C105.234 45.3483 108.397 50.9173 111.527 55.6419C117.061 63.993 122.827 70.8542 126.93 73.9656L127.712 74.5589L126.503 74.7226C125.837 74.8128 124.135 74.9641 122.723 75.0613C121.31 75.158 119.833 75.2832 119.44 75.3386C119.048 75.394 117.443 75.5291 115.874 75.6364C114.304 75.7437 112.817 75.8684 112.571 75.9137C112.325 75.9594 110.526 76.088 108.575 76.2001C106.623 76.3123 104.804 76.4437 104.533 76.4934C103.256 76.727 92.8969 77.048 86.616 77.048C80.1816 77.048 72.6468 76.7824 70.92 76.4956C70.5276 76.4301 69.307 76.2978 68.2082 76.2001C64.0627 75.8312 55.4299 74.2184 48.882 72.5904C32.5357 68.5263 20.2683 63.5378 9.94312 56.7534C6.58254 54.5453 2.97961 51.8117 1.20972 50.1272C0.623927 49.5697 0.0868531 49.1727 0.0140522 49.2453C-0.342227 49.6016 6.15676 60.1677 10.3568 66.0597C16.3782 74.5066 22.2763 81.4129 30.3604 89.4821C38.4607 97.5674 47.7942 105.348 54.8671 109.911C64.425 116.077 76.3507 121.071 88.1822 123.863C92.1734 124.805 100.065 126.17 103.028 126.432C104.284 126.543 105.384 126.676 105.472 126.727C105.869 126.96 114.159 127.282 119.727 127.282C125.101 127.282 132.471 126.994 133.931 126.727C134.203 126.678 135.453 126.544 136.709 126.43C137.965 126.315 139.183 126.187 139.419 126.143C139.654 126.101 141.004 125.912 142.417 125.723C152.212 124.409 160.498 122.49 175.239 118.124C176.495 117.752 179.128 117.109 181.09 116.696C186.508 115.557 190.76 115.925 194.492 117.855C195.774 118.518 197.865 120.487 198.714 121.829C201.836 126.766 201.202 135.399 197.106 143.692C193.296 151.406 187.825 157.264 181.52 160.377C178.175 162.028 175.915 162.594 172.243 162.7C166.663 162.86 163.401 161.77 157.074 157.635C151.798 154.187 149.659 153.076 146.352 152.062C143.899 151.31 143.671 151.29 136.136 151.273C128.516 151.256 124.594 151.428 119.965 151.977C118.656 152.133 117.007 152.324 116.301 152.405C115.017 152.551 113.203 152.767 111.591 152.969C109.758 153.197 103.214 153.855 100.039 154.13C97.3414 154.364 87.8152 154.364 85.75 154.13C80.4264 153.528 78.7002 153.273 75.6618 152.639C67.1233 150.858 59.0441 147.886 49.2275 142.91L45.0881 140.812L50.0844 145.758C78.8015 174.19 119.683 195.8 165.714 206.883C176.107 209.385 190.786 212.036 200.641 213.188C201.426 213.28 202.325 213.407 202.639 213.468C202.953 213.53 204.238 213.668 205.494 213.775C206.75 213.882 207.843 214.009 207.922 214.055C208.001 214.1 209.541 214.231 211.345 214.343C213.15 214.455 214.874 214.592 215.176 214.648C215.477 214.703 218.237 214.833 221.311 214.937C224.385 215.04 226.945 215.162 227 215.209V215.212C227.158 215.348 249.264 215.094 251.018 214.937C251.882 214.859 254.323 214.717 256.442 214.623C258.561 214.528 260.808 214.399 261.436 214.334C262.064 214.27 263.863 214.138 265.432 214.041C267.002 213.944 268.671 213.818 269.142 213.759C269.613 213.701 271.025 213.574 272.281 213.477C274.306 213.322 283.183 212.392 285.841 212.057C311.282 208.846 332.43 204.859 356.196 198.793C399.354 187.778 440.232 172.624 507.897 142.555C572.439 113.874 623.636 97.5798 659.026 94.458C660.125 94.3613 661.408 94.2338 661.879 94.1761C666.493 93.6105 682.619 93.3908 687.995 93.8192C702.886 95.0064 716.609 99.013 726.813 105.153C742.877 114.819 752.042 128.921 753.809 146.69C754.25 151.12 753.859 159.732 753.059 163.245C752.536 165.541 752.774 165.54 754.314 163.241C762.025 151.722 767.701 137.496 769.882 124.216C770.724 119.094 770.736 118.999 770.976 115.58C771.664 105.761 770.853 96.1228 768.582 87.0861C765.457 74.6527 759.981 63.7746 751.386 52.93C748.601 49.4166 740.353 41.157 736.49 38.0114C712.701 18.6421 678.933 6.46794 636.192 1.85255C629.857 1.16846 628.741 1.05955 625.488 0.825096C624.154 0.728729 622.768 0.606353 622.408 0.550046C620.067 0.184622 611.877 0.000116452 603.293 6.72677e-08Z" fill="#D40000"/>
<path d="M602.759 10.0314C602.153 10.0138 601.528 10.0233 600.882 10.0496C594.362 10.3461 588.474 13.2195 582.365 19.0899C577.978 23.3049 575.085 27.3872 572.226 33.4015C567.58 43.1778 565.226 54.7151 565.505 66.337C565.674 73.3802 566.655 78.1154 569.18 84.0879C572.127 91.0552 576.658 95.7438 581.812 97.1608C583.729 97.6875 587.259 97.6721 589.693 97.1289V97.1312C600.52 94.7159 607.579 84.5443 609.572 68.4851C609.737 67.1549 609.872 65.1245 609.872 63.9752V61.8862L607.528 65.3959C604.473 69.9679 600.274 74.2624 597.565 75.5864C590.596 78.9933 585.402 72.6474 589.039 65.1686C590.179 62.824 591.324 61.5849 597.554 55.9533C610.648 44.1158 614.006 39.3686 616.453 29.2326C618.099 22.4126 617.084 17.6 613.275 14.1526C610.307 11.4673 607.002 10.1589 602.759 10.0314ZM577.155 11.0248L574.32 11.2203C568.906 11.5907 543.077 14.1463 542.914 14.3277C542.884 14.3628 542.973 15.5448 543.112 16.9577C543.477 20.6674 543.36 32.1034 542.917 35.9384C541.683 46.6157 539.459 53.114 536.518 54.6349C535.33 55.2493 534.728 55.1662 533.876 54.2758C529.976 50.1983 528.265 32.3111 530.542 19.4172C530.857 17.6301 531.064 16.1163 531.001 16.053C530.819 15.8709 496.576 21.2859 496.315 21.538C496.258 21.593 497.071 22.7032 498.122 24.0067C506.671 34.6079 511.694 47.1581 513.12 61.4748C513.404 64.3222 513.516 74.1691 513.284 75.8978C513.231 76.2902 513.095 77.638 512.982 78.8938C511.689 93.2442 505.732 112.332 497.236 129.339C495.1 133.615 495.003 133.838 495.303 133.838C495.397 133.838 499.411 132.119 504.223 130.019C509.035 127.919 516.826 124.573 521.535 122.584C526.245 120.594 530.578 118.762 531.167 118.51C531.755 118.258 532.237 117.964 532.237 117.855C532.237 117.747 531.985 116.45 531.676 114.971C530.546 109.562 530.261 106.072 530.36 98.8747C530.459 91.6334 530.955 87.5478 532.265 83.1855C533.467 79.1829 535.576 76.182 537.188 76.182C538.586 76.182 540.26 78.8775 541.482 83.0946C543.005 88.3479 543.702 93.8209 543.71 100.586C543.719 106.274 543.393 108.798 542.046 113.55C541.896 114.081 541.943 114.199 542.253 114.064C547.909 111.598 556.651 108.347 573.133 102.578L576.211 101.5L574.729 100.655C572.686 99.4875 569.495 96.209 567.58 93.3078C558.721 79.8838 555.873 58.8578 560.488 40.9597C562.9 31.605 567.966 21.7269 573.809 14.9891C574.884 13.7488 576.077 12.3491 576.459 11.8795L577.155 11.0248ZM646.556 14.2504C642.681 14.2033 638.468 15.5756 634.483 18.2943C623.726 25.6325 616.759 40.9178 616.305 58.1719C616.173 63.1623 616.467 66.221 617.446 70.0468C619.596 78.4494 623.763 84.0427 628.932 85.4655C630.958 86.023 634.298 85.9679 636.768 85.3359C645.031 83.2226 651.657 75.6521 655.769 63.6252C656.773 60.6878 657.899 56.4898 657.683 56.4898C657.638 56.4898 656.591 57.5292 655.357 58.8016C646.76 67.6654 638.869 70.4441 635.442 65.8142C634.455 64.4794 634.603 61.6794 635.788 59.2721C636.582 57.6581 637.336 56.7972 640.639 53.7234C647.913 46.954 651.915 42.7707 653.737 40.0346C657.592 34.2436 659.491 25.9379 657.987 21.4403C657.367 19.5857 655.041 16.9723 653.043 15.8848C651.084 14.8186 648.88 14.2786 646.556 14.2504ZM664.643 17.6464C664.399 17.6684 664.419 17.8137 664.473 18.0442C665.955 24.3545 666.488 29.1451 666.509 36.368C666.531 43.2314 666.325 46.4331 665.507 52.064C663.802 63.7973 660.667 73.2761 656.348 79.7508C655.511 81.0067 654.716 82.2078 654.582 82.4195C654.381 82.7371 654.778 82.7679 656.864 82.5968C658.254 82.4828 659.714 82.3502 660.106 82.3035C661.885 82.0915 670.393 81.7942 674.663 81.7944C680.71 81.7946 686.122 82.1031 690.789 82.7104C692.83 82.9761 694.516 83.188 694.537 83.1833C694.559 83.1786 694.653 81.3133 694.746 79.037C694.839 76.7608 694.987 71.4949 695.074 67.3349C695.161 63.175 695.3 59.1943 695.38 58.4879L695.526 57.2036L694.326 59.2017C692.626 62.0275 688.98 65.5668 686.533 66.7712C684.05 67.9938 681.807 68.2126 680.453 67.3622C675.42 64.201 676.419 50.7445 683.24 29.8191C684.331 26.4722 685.222 23.6692 685.222 23.5907C685.222 23.5119 684.999 23.3835 684.724 23.3065C684.449 23.2296 681.912 22.4342 679.087 21.538C676.261 20.6419 671.783 19.348 669.137 18.6625C666.193 17.9 665.051 17.6075 664.643 17.6464ZM489.605 22.8087C489.086 22.8087 463.221 27.6282 459.313 28.4529L458.172 28.6939L460.745 30.0259C470.902 35.2899 477.144 45.6201 478.6 59.5722C479.155 64.8853 478.232 71.928 476.239 77.5936C475.239 80.4342 473.415 84.5289 473.231 84.3448C473.162 84.2753 473.047 83.5975 472.974 82.84C472.489 77.7498 469.976 72.6475 465.703 68.0714C463.923 66.1654 459.857 63.0546 459.147 63.0546C459.003 63.0546 458.886 63.4549 458.886 63.9457C458.886 65.5512 457.499 71.7292 456.456 74.7726C455.213 78.3962 452.279 84.4579 450.452 87.1726C448.231 90.4728 443.695 95.6225 443.33 95.2582C443.249 95.1763 443.432 93.6459 443.737 91.8553C445.421 81.9728 445.266 70.7163 443.319 61.7703C441.192 51.9949 436.069 42.9224 429.851 37.9205C426.264 35.0347 427.367 35.0952 417.446 37.2363C398.997 41.218 378.517 45.6803 378.021 45.8265C377.698 45.9215 378.781 46.4093 380.876 47.1108C385.313 48.5967 389.326 50.5923 393.449 53.362C407.146 62.5641 415.22 76.6316 417.683 95.5923C418.227 99.7795 418.406 112.396 417.996 117.653C417.08 129.431 414.39 141.305 410.354 151.391C407.555 158.386 405.214 162.873 401.273 168.801C399.916 170.842 398.763 172.608 398.711 172.724C398.604 172.965 405.359 170.635 414.216 167.376C422.126 164.465 444.549 155.69 444.853 155.385C444.909 155.33 444.74 154.345 444.476 153.196C443.832 150.384 443.608 144.372 444.012 140.689C445.256 129.36 450.236 116.164 455.442 110.406L456.578 109.149L456.592 112.145C456.632 122.236 462.296 136.642 468.792 143.174L470.565 144.956L472.504 144.078C473.57 143.596 477.589 141.789 481.435 140.062C485.281 138.334 488.647 136.804 488.914 136.661C489.359 136.424 489.363 136.299 488.975 135.199C487.671 131.504 487.281 123.882 488.125 118.567C489.015 112.96 490.161 109.532 493.946 101.134C499.663 88.454 502.283 80.4509 503.566 71.7585C504.131 67.9335 504.318 61.0133 503.955 57.3581C502.881 46.5409 497.906 33.3644 491.637 24.7363C490.636 23.3583 490.057 22.8087 489.605 22.8087ZM599.636 23.4634C600.513 23.5227 601.326 23.9101 602.046 24.6295C604.62 27.2044 603.798 31.8515 599.818 37.2227C599.004 38.3215 595.876 41.6618 592.867 44.6445C589.417 48.0635 587.056 50.6469 586.479 51.6367L585.563 53.2074L585.727 50.3478C586.29 40.5402 589.917 30.7883 594.831 25.8752C596.53 24.1756 598.173 23.3644 599.636 23.4634ZM644.114 25.2228C646.209 25.2052 647.778 27.3329 647.417 30.0555C646.972 33.413 644.52 36.9495 638.688 42.6464C636.76 44.5302 634.69 46.8294 634.088 47.7564C633.341 48.9045 632.992 49.255 632.992 48.8566C632.992 45.0134 634.38 38.0664 635.87 34.454C637.731 29.9399 640.85 26.0692 643.189 25.3683C643.506 25.2733 643.815 25.2254 644.114 25.2228ZM708.76 37.184C707.089 37.1817 705.533 37.3996 704.582 37.8387C702.681 38.7172 700.774 40.5909 699.875 42.4623C698.76 44.7807 698.594 48.7388 699.488 51.6821C700.853 56.1748 702.863 59.1284 708.942 65.5687C713.693 70.6025 714.901 72.2984 714.904 73.9498C714.907 75.2305 713.875 76.182 712.481 76.182C710.152 76.182 704.894 72.4225 702.882 69.3171C702.379 68.5413 701.936 67.9369 701.9 67.976C701.778 68.1053 701.431 83.8879 701.55 83.8879C701.614 83.8879 703.97 84.735 706.787 85.7701C715.532 88.9831 719.301 89.6409 722.89 88.5751C727.689 87.15 730.102 83.0773 730.148 76.3252C730.183 71.106 728.449 67.8776 722.847 62.7364C713.865 54.4927 712.573 52.8352 713.618 50.8956C714.314 49.6023 715.45 49.1729 716.991 49.6204C720.326 50.5884 724.705 54.7778 728.234 60.3746C728.84 61.3356 728.689 56.6208 728.032 54.053C726.102 46.5065 720.268 39.946 713.622 37.8524C712.217 37.4097 710.432 37.1865 708.76 37.184ZM312.18 60.0564C312.18 60.0212 310.591 60.3546 308.647 60.7951C298.263 63.1489 282.235 66.228 263.555 69.4558C259.495 70.1574 256.134 70.77 256.088 70.8174C256.041 70.8649 256.3 72.0175 256.665 73.3815C258.043 78.5378 258.378 82.3758 258.37 92.8805C258.362 103.086 258.025 107.492 256.788 113.546C254.82 123.174 251.063 128.086 247.936 125.118C245.871 123.158 243.951 117.566 243.235 111.432C243.125 110.49 242.98 109.463 242.913 109.149C242.565 107.54 242.493 95.0354 242.808 91.0256C243.394 83.5639 244.742 76.978 246.379 73.5838C246.75 72.8152 247.013 72.1881 246.963 72.1881C246.914 72.1881 244.709 72.5017 242.065 72.8859C221.847 75.8217 205.692 77.5713 193.874 78.1051C191.206 78.2256 184.438 78.3233 178.837 78.3233C170.276 78.9121 164.963 76.9422 175.178 81.0351C194.35 88.7126 205.241 96.2533 212.071 106.581C214.874 110.819 216.321 113.946 217.751 118.853C219.066 123.366 219.469 126.343 219.57 132.267C219.666 137.941 219.385 141.05 218.267 146.681C214.51 165.609 202.677 182.901 185.673 194.315C183.106 196.037 179.332 198.053 178.649 198.065C176.113 198.112 187.457 200.139 196.87 201.32C203.692 202.177 211.262 202.836 217.135 203.084C219.568 203.187 221.607 203.312 221.666 203.362C221.724 203.412 226.651 203.453 232.615 203.453H243.46L243.294 202.682C240.994 191.924 240.268 185.299 240.396 176.223C240.548 165.471 243.115 154.55 246.725 149.304C250.227 144.214 254.196 147.667 255.808 157.203C257.556 167.547 256.37 187.736 253.274 200.325L252.621 202.982L255.785 202.793C262.494 202.396 273.168 201.289 285.066 199.754C292.943 198.738 307.238 196.675 308.004 196.445C308.406 196.324 308.02 196.005 306.433 195.147C299.525 191.411 294.239 186.631 290.062 180.344C283.964 171.165 280.612 160.323 279.212 145.253C278.928 142.198 279.016 132.536 279.365 128.414C281.168 107.116 287.999 87.6273 298.702 73.2405C301.479 69.5076 306.177 64.6915 309.54 62.1294C310.993 61.0232 312.18 60.0902 312.18 60.0564ZM345.767 61.9499C342.617 61.8742 339.411 62.1892 336.216 62.916L334.147 63.3865L336.825 64.7299C341.204 66.9262 344.055 69.5456 347.24 74.3021C352.663 82.4009 356.223 94.4276 357.558 109.149C357.876 112.649 357.995 122.362 357.736 123.593C357.656 123.968 357.514 125.368 357.42 126.702C356.368 141.596 354.297 151.047 348.85 165.805C347.457 169.577 347.213 170.528 347.193 172.258C347.167 174.471 347.56 175.399 348.886 176.268C350.381 177.247 352.252 177.295 355.849 176.446C361.243 175.171 367.73 171.691 373.118 167.182C385.958 156.438 394.911 140.041 398.084 121.465C398.401 119.605 398.662 117.936 398.661 117.755C398.661 117.575 398.101 118.666 397.418 120.181C394.348 126.988 390.089 131.342 385.306 132.563C383.167 133.109 381.981 132.918 381.328 131.922C380.885 131.245 380.884 131.041 381.331 128.878C381.947 125.883 382.841 118.792 383.242 113.716C383.905 105.35 383.698 105.807 387.977 103.266C396.571 98.1645 401.047 90.757 400.607 82.3672C400.536 81.0113 400.398 79.8211 400.3 79.7235C400.202 79.6259 399.505 80.0667 398.75 80.7033C395.982 83.0365 389.913 85.3853 384.045 86.3929C381.309 86.8628 381.259 86.8616 380.476 86.277C380.028 85.9427 379.061 84.4529 378.255 82.8605C376.213 78.8242 374.084 75.8673 370.977 72.7496C364.187 65.9368 355.219 62.1773 345.767 61.9499ZM323.859 70.6651C320.553 70.6782 317.104 71.5674 313.573 73.3292C310.313 74.9562 308.099 76.5417 305.226 79.3098C294.672 89.4796 288.457 106.483 286.861 129.555C286.737 131.361 286.642 135.857 286.65 139.546C286.667 147.228 287.034 150.27 288.775 157.117C293.892 177.239 305.663 188.489 318.199 185.236C333.713 181.21 343.945 165.21 347.968 138.689C349.3 129.907 349.871 121.791 349.705 114C349.583 108.301 349.524 107.55 348.825 102.728C347.623 94.439 344.834 86.6158 341.044 80.8965C339.309 78.2783 335.573 74.5993 333.279 73.2496C330.327 71.5137 327.165 70.6519 323.859 70.6651ZM319.704 90.1618C322.255 90.1094 324.363 93.8695 325.593 100.873C326.494 105.999 326.795 110.666 326.789 119.424C326.779 135.05 325.998 147.812 324.611 155.06C323.112 162.894 320.091 167.125 316.539 166.362C313.381 165.684 311.508 161.728 310.329 153.246C309.692 148.659 309.468 144.018 309.468 135.409C309.468 110.509 312.497 94.4358 317.871 90.8142C318.502 90.3893 319.115 90.1739 319.704 90.1618Z" fill="#FFFF00"/>
</svg>
